<svg id="Ebene_1" data-name="Ebene 1" xmlns="http://www.w3.org/2000/svg" xmlns:xlink="http://www.w3.org/1999/xlink" viewBox="0 0 680.57 857.06"><defs><style>.cls-1{fill:#c9e7fa;}.cls-2{fill:#dcf0fb;}.cls-3{fill:#3c3c3b;}.cls-4{fill:#fff;}.cls-5{fill:#5c6060;}.cls-6{fill:none;}.cls-6,.cls-7{stroke:#1d1d1b;stroke-miterlimit:10;stroke-width:6px;}.cls-7{fill:#1d1d1b;}</style></defs><path class="cls-1" d="M828.07,876.42c9.74,10.44,24.11,15.7,38.13,13,9.73-1.86,17-6.87,16.33-17.08C875.45,760.93,754.84,680.1,734.94,585.66c0,0,1.11-77,1.21-99.21,1.16-261.89-88.89-389.88-206.32-389.88-171.14,0-300.5,333.55-327.78,782.63a28.73,28.73,0,0,0,28.7,30.43l64-53.3c8.62-3.23,15.47-2.92,24.35-.47l51.75,43.56a34.29,34.29,0,0,0,44.37-.17l55.17-47.13c12.69-4.08,24.06-4.63,37-1.41l44,35a31,31,0,0,0,47.14-10.51L617,838.06c16.42-9.53,25.83-12.13,43.09-4.21,7.56,3.47,19.53,28.83,28.37,49.2,4.53,10.41,40.73,4.42,45.81-5.74l18.82-45.57c2.51-6.09,6.92-11.62,13.11-13.87.89-.32,2.71-.09,8.17,1Z" transform="translate(-202 -52.57)"/><path class="cls-2" d="M819.49,832.42c9.6,10.44,23.77,15.69,37.59,13,9.59-1.86,16.74-6.87,16.1-17.08-3.76-60-37-109.8-69.89-157.71a358.6,358.6,0,0,1-62.68-211.41c.23-10,.39-18.3.41-23.3C742.16,174,641.26,52.57,525.49,52.57c-168.7,0-296.22,333.55-323.11,782.62a28.56,28.56,0,0,0,28.28,30.44l63.1-53.3c8.51-3.23,15.26-2.92,24-.47l51,43.56a33.45,33.45,0,0,0,43.75-.17l54.38-47.14c12.51-4.07,23.72-4.63,36.47-1.4l43.41,35a30.4,30.4,0,0,0,46.48-10.51l18.15-37.15c16.19-9.54,25.47-12.13,42.48-4.21,7.45,3.46,19.25,28.83,28,49.2,4.46,10.41,40.15,4.41,45.15-5.74l18.55-45.58c2.48-6.08,6.83-11.62,12.93-13.86.88-.33,2.67-.09,8.06,1Z" transform="translate(-202 -52.57)"/><ellipse class="cls-3" cx="193.85" cy="237.64" rx="23.47" ry="35.21"/><ellipse class="cls-3" cx="322.94" cy="235.68" rx="23.47" ry="35.21"/><path class="cls-3" d="M546.45,426.15c-10.68,15.77-35.9,34.23-80.19,34.23s-80.19-15.33-80.19-34.23,35.9-34.23,80.19-34.23c22.15,0,81.26-14.05,86.06,1C557.33,408.59,551.75,418.32,546.45,426.15Z" transform="translate(-202 -52.57)"/><rect class="cls-4" x="344.04" y="512.73" width="205.13" height="99.97" rx="12"/><image width="2000" height="835" transform="translate(361.69 534.95) scale(0.08)" xlink:href="../../../../../../../../Desktop/2000px-DHBW-Logo.svg.png"/><rect class="cls-4" x="430.22" y="581.31" width="93.97" height="23.29"/><path class="cls-5" d="M330.87,309.93c0,10.19.33,19,.34,27.8,0,19.18-19.53,34.63-31.75,34.63-11.89,0-30.5-10-30.39-31.24.05-9.22-1-20.33-1-31.19,0-9.5,1.12-23.68,1.36-32,.68-23.43,17.48-30.47,30-30.47,12.07,0,30.25,10.9,31.75,31.15C331.87,287.59,330.87,299.45,330.87,309.93Z" transform="translate(-202 -52.57)"/><path class="cls-5" d="M302.23,293.45a270.4,270.4,0,0,1,31-124.52,248.79,248.79,0,0,1,23.64-36.59,214.07,214.07,0,0,1,66.15-57,184.67,184.67,0,0,1,41.12-16.37,172.12,172.12,0,0,1,44.05-5.63,180.7,180.7,0,0,1,85,22.51A211.27,211.27,0,0,1,629.31,101c5.54,4.8,10.87,9.81,15.9,15.12s9.8,10.84,14.29,16.57a247.71,247.71,0,0,1,23.83,36.46,272.29,272.29,0,0,1,17.28,39.77,268.64,268.64,0,0,1,10.5,41.85c.29,1.77.64,3.52.88,5.3l.69,5.34.69,5.33c.24,1.77.34,3.56.49,5.35l.42,5.35c.15,1.78.29,3.56.32,5.35l.36,10.71-.79,0a309.52,309.52,0,0,0-5.73-42.22,274.21,274.21,0,0,0-11.79-40.93,261.43,261.43,0,0,0-42-73.72c-18-22-39.92-40.82-65-54.2a182.51,182.51,0,0,0-39.47-15.58,167.5,167.5,0,0,0-42-5.55,164.47,164.47,0,0,0-42.07,5.18,180.26,180.26,0,0,0-39.51,15.47,198.66,198.66,0,0,0-35.13,23.89,228.45,228.45,0,0,0-29.67,30.47,260.16,260.16,0,0,0-41.58,74A291.68,291.68,0,0,0,303,293.49Z" transform="translate(-202 -52.57)"/><path class="cls-6" d="M497.52,528.23c101.32,3.59,185.38-39.34,211-110.74,5.2-14.53,9.69-35,7.88-62" transform="translate(-202 -52.57)"/><ellipse class="cls-7" cx="280.02" cy="475.66" rx="37.65" ry="15.5"/><path class="cls-5" d="M741.68,315.17c0,10.19.33,19,.34,27.79,0,19.18-19.53,34.63-31.75,34.63-11.88,0-30.5-10-30.39-31.23,0-9.23-1-20.34-1-31.19,0-9.5,1.12-23.69,1.36-32,.68-23.43,17.49-30.46,30-30.46,12.07,0,30.25,10.9,31.75,31.14C742.68,292.83,741.68,304.68,741.68,315.17Z" transform="translate(-202 -52.57)"/></svg>